<?xml version="1.0" encoding="UTF-8"?>
<svg width="712px" height="712px" viewBox="0 0 712 712" version="1.1" xmlns="http://www.w3.org/2000/svg" xmlns:xlink="http://www.w3.org/1999/xlink">
    <!-- Generator: Sketch 53.2 (72643) - https://sketchapp.com -->
    <title>Group 2</title>
    <desc>Created with Sketch.</desc>
    <defs>
        <linearGradient x1="50%" y1="0%" x2="50%" y2="100%" id="linearGradient-1">
            <stop stop-color="#38D2DA" offset="0%"></stop>
            <stop stop-color="#1998A2" offset="100%"></stop>
        </linearGradient>
        <rect id="path-2" x="-2.27373675e-13" y="0" width="712" height="712" rx="356"></rect>
    </defs>
    <g id="Page-1" stroke="none" stroke-width="1" fill="none" fill-rule="evenodd">
        <g id="Group-2">
            <g id="Path-2" transform="translate(0.000000, 0.000000)">
                <mask id="mask-3" fill="white">
                    <use xlink:href="#path-2"></use>
                </mask>
                <use id="Mask" fill="url(#linearGradient-1)" xlink:href="#path-2"></use>
                <path d="M22,203.481048 C79.2505072,117 229.023383,47.2539062 196.011692,208.253906 C163,369.253906 219.635473,581.672781 363.817737,550.463344 C508,519.253906 674,368.253906 617,552.253906 C579,674.920573 345.333333,838.920573 -84,1044.25391 L-470,321.253906 C-180.167005,300.392699 -16.1670048,261.13508 22,203.481048 Z" fill-opacity="0.2" fill="#000000" fill-rule="nonzero" mask="url(#mask-3)"></path>
            </g>
            <g id="Up7EVw5uQi" transform="translate(232.000000, 117.000000)" fill="#FFFFFF" fill-rule="nonzero">
                <g id="Group" transform="translate(130.500000, 230.600000) scale(-1, 1) rotate(-180.000000) translate(-130.500000, -230.600000) translate(0.000000, 0.100000)">
                    <path d="M229.208765,289.887572 C231.410333,290.644367 232.629747,292.45959 232.927101,294.456192 C233.073287,295.43777 232.996494,296.364248 232.783325,297.366619 C232.530627,298.554865 232.075192,299.85584 231.413064,301.445386 C231.270145,301.788488 231.118242,302.143019 230.953033,302.520398 C230.733889,303.020979 229.814804,305.058973 229.664723,305.414947 C227.961343,309.455184 171.268381,410.940823 163.60995,423.050814 C151.554595,442.113496 138.381126,460 116.507029,460 C92.7406182,460 73.9468415,441.957012 63.2578473,425.304709 C61.7427389,422.989942 46.4884441,393.066082 30.6134268,361.350178 C22.3882806,344.917569 15.0653067,330.131205 9.74926772,319.197552 C0.929526474,301.057731 -0.233304546,298.540567 0.0484389848,296.222189 C0.526502658,292.771139 2.55504732,290.657839 6.40586636,289.978557 C8.50320462,289.608588 11.050487,289.49811 19.7561596,289.304364 C37.5944169,288.957273 39.9965099,289.759065 44.5087245,298.792538 C50.8428222,311.130931 94.4407603,397.834529 98.5510834,406.712025 C103.085345,416.505145 107.806386,419.8587 116.443803,419.8587 C123.471289,419.8587 128.413792,415.492593 132.646553,406.653327 C136.729784,398.126325 165.78913,342.78018 169.797055,335.891721 C170.761668,334.208273 171.91431,332.003792 172.582578,330.639415 C173.096171,329.357553 174.580579,326.108415 176.381353,322.28505 L176.430278,322.184126 C178.222698,318.589922 180.221486,314.46739 180.896062,312.976685 L180.952284,312.856702 C181.825567,311.055542 182.834575,309.104515 183.398154,308.174602 C183.821306,307.476395 185.644765,303.781463 187.065775,300.667426 L187.115477,300.561792 C189.288741,296.079399 191.991698,292.08657 194.316067,290.779102 L194.475928,290.692963 C196.801499,289.493831 202.86317,289.184415 213.124122,289.302951 C222.856747,289.14693 227.340536,289.245363 229.208765,289.887572 Z" id="Path"></path>
                    <path d="M5.68434189e-14,258.612576 L5.68434189e-14,5.36367117 L2.30473152,3.888643 L4.72649902,2.33974853 C7.46036684,0.517169984 12.7763964,-0.0672305335 19.1060439,0.114560911 C26.5503536,0.32836615 31.184995,1.17367291 33.2258818,4.42726246 C34.3513324,6.19724714 34.4680965,8.6683833 34.7239681,21.2609245 C34.9026886,30.0565264 35,42.1912533 35,56.1 C35,104.584498 35.3665652,109.60141 39.3233905,118.896251 C40.1210167,120.833343 40.6958734,122.47938 40.9090491,123.785236 C40.9992189,123.962116 41.1284863,124.195899 41.2914667,124.471934 C41.814552,125.357868 42.5937813,126.528351 43.5212165,127.817428 C45.4933198,130.558528 47.8201594,133.406734 49.577871,135.207316 C49.9381233,135.576355 50.4666961,136.019551 51.1425526,136.509833 C52.6901897,137.632527 54.847345,138.88944 57.4526242,140.212957 C60.4513846,141.736368 62.8157588,142.789131 66.8482,144.495164 C69.6116596,145.66432 71.1778797,146.182772 73.7063715,146.702325 C79.8142949,147.957378 84.6480985,147.632962 95.6689287,145.307466 C117.773785,140.649004 127.798912,129.213792 132.169356,103.27009 C133.785305,93.6694547 134,87.4330645 134,49.8 L134,3.69228252 L137.171738,2.44624253 L139.982288,1.3421119 C142.771573,0.253610352 147.805521,-0.0501623803 153.269494,0.244767987 C160.217184,0.619785347 164.258028,1.39952996 166.226536,4.27658042 L166.310743,4.39965104 L166.387465,4.52752122 C167.448989,6.29672828 167.585258,9.28873269 167.73709,21.1484939 C167.854587,30.3262792 167.844963,43.3219938 167.699885,59.1339359 C167.408378,102.082584 167.165616,108.394389 165.569206,115.236148 C164.282142,120.752135 162.590596,126.165083 160.681646,131.255617 C158.297079,137.614463 147.808543,154.326966 141.768018,159.895464 C133.232294,167.674858 119.534201,175.003978 109.521919,177.094454 L109.394427,177.11935 C107.231788,177.512557 103.520761,178.297001 101.130649,178.870486 C94.8839024,180.320623 72.6293988,180.361836 66.3918945,178.975664 C66.214843,178.935425 64.9017291,178.636195 64.4709398,178.538373 C63.6339575,178.348316 62.912149,178.18578 62.2153477,178.030935 C62.0033489,177.983824 61.7960869,177.93797 61.5931608,177.893294 C60.0870202,177.561699 58.8354379,177.298431 57.855763,177.110032 L57.6757025,177.071956 C54.3742414,176.31008 51.473353,175.476846 50.063932,174.772136 C47.8182423,173.649291 46.095536,172.808446 44.4309853,172.051832 C42.2383343,171.055173 38.3812052,168.615654 35,166.164699 L35,205.9 C35,219.727294 34.9049492,232.44116 34.7367095,241.901405 C34.5016252,255.120379 34.3883563,257.876589 33.4707864,259.528215 L33.3598365,259.727924 L33.2311367,259.916684 C31.1287975,263.000115 26.4046889,263.805716 18.8525095,263.998374 C12.2788681,264.166069 7.07000271,263.602824 4.39376779,261.669111 L5.68434189e-14,258.612576 Z" id="Path"></path>
                    <path d="M235.467508,49.3886068 C235.436156,49.7375039 235.40254,50.234323 235.368255,50.8667549 C235.296347,52.1931803 235.223956,54.0662336 235.152462,56.4616634 C235.006965,61.3365869 234.866936,68.3105757 234.736965,77.198112 C234.465631,95.7522093 234.245306,122.101863 234.099874,154.33546 C233.901963,182.240917 233.652527,208.093633 233.399556,227.079116 C232.886134,265.611479 233.030562,259.140703 231.604344,260.923475 L231.257291,261.357291 L230.823475,261.704344 C228.99623,263.16614 224.930413,263.614782 217.914089,263.895414 C209.786458,264.243742 206.361484,263.89878 203.543182,261.832025 L203.5,261.8 C200.338102,259.428576 200.01286,257.177465 199.775715,243.159574 C199.578031,231.474217 199.574863,216.727589 199.700022,152.585015 C199.762506,131.736267 199.782257,125.324559 199.8116,116.754716 C200.027863,53.5914271 200.19355,47.562976 201.968445,41.5367883 C202.015721,41.3762783 202.065297,41.2116708 202.130754,40.9985706 C205.785728,29.3886517 210.008479,22.0283271 217.439481,14.4896291 C225.249121,6.56842319 234.828881,1.1537762 242.207834,0.903694127 C249.396995,0.627187957 256.671948,4.74273294 259.202909,10.8472508 C263.155795,20.1647679 258.873032,28.6165923 248.459209,33.7604902 C242.084693,36.9891413 237.717278,42.1905819 235.478605,49.2501878 C235.478649,49.2725086 235.473231,49.3249186 235.467508,49.3886068 Z" id="Path"></path>
                </g>
            </g>
        </g>
    </g>
</svg>